<svg xmlns="http://www.w3.org/2000/svg" viewBox="0 0 128 128"><path fill="#010101" d="M44.44 100.63c-4.23-3.33-8.74-6.52-11.83-11.01-6.49-7.92-11.49-17.1-14.9-26.74-2.07-6.27-2.77-12.99-5.44-19.02-2.78-4.38.48-9.16 5.27-10.55 2.13-.41 5.89-2.43 1.36-.98-4.06 2.98-4.45-2.71-.29-3.07 2.84-.38 3.89-2.7 2.92-4.8-3.05-1.99 7.4-4.18 2.14-7.15-5.48-5.91 7.66-7.05 4.42-.33-.77 5.16 9.18-.95 6.87 5.01 2.35 2.86 8.8.65 8.63 4.67 3.42.24 4.6 3.11 7.8 3.33 3.33 1.5 9.36 2.69 10.49 6.44-3.3 2.61-10.95-5.4-11.31 1.84 1 10.69.74 21.7 4.65 31.88 1.85 6.16 6.33 11.01 10.38 15.81 3.88 4.7 9.12 8.01 14.48 10.8 4.69 2.21 9.75 3.68 14.87 4.6 2.07-1.59 5.74-7.48 8.97-5 .16 2.8-6.42 5.84-.31 5.54 3.59-1.08 6.08 2.77 9.04-.71 2.72 3.23 11.32-2.06 9.38 4.53-2.62 1.69-6.44.67-9.07 3-4.33-2.16-7.77 1.93-12.56 1.42-5.32.95-10.73 1.34-16.13 1.34-8.85-.7-17.89-.99-26.3-4.07-4.74-1.38-9.37-4.08-13.53-6.78zm7.47 3.24c4.63 2 9.16 4.11 14.23 4.75 8.05 1.12 16.37 2.84 24.45 1.27-3.66-1.65-7.44.64-11.08-1.18-4.37.94-9.06-.24-13.5-.82-5.05-2.25-10.5-3.8-15.23-6.72-5.91-2.16 3.06 2.77 4.65 3.17 3.69 2.1-4.06-1.08-5.16-1.95-3.09-1.74-3.49-1.37-.31.39.64.37 1.28.77 1.95 1.09zm-8.81-6.23c4.49 1.66-.02-3.16-2.07-2.88-.91-1.58-3.48-2.58-1.67-3.43-3.26 1.13-3.42-4.3-4.95-3.53-3.45-1.09-1.34-4.95-5.45-7.32-.37-2.5-4.08-4.66-5.26-8.43-.52-1.93-4.19-7.46-1.94-2.31 1.92 4.96 5.29 9.21 8.1 13.45 2.18 4.04 4.76 8.26 8.72 10.78 1.34 1.3 2.63 3.27 4.52 3.67z"/></svg>
