<svg xmlns="http://www.w3.org/2000/svg" viewBox="0 0 128 133"><path fill="#EF4423" d="M26.027 0.137c-.203.078-5.942 3.347-12.746 7.257C5.035 12.137.801 14.633.574 14.867c-.18.203-.383.555-.445.777C-.043 16.219-.055 100.348.117 100.953c.063.234.266.578.45.77.446.469 49.673 28.774 50.27 28.91.278.067.59.055.899-.031.672-.168 49.769-28.41 50.207-28.871.18-.199.383-.543.449-.777.086-.278.117-4.676.117-13.938V73.48l11.969-6.875c11.285-6.488 11.977-6.895 12.266-7.34l.297-.48V44.207c0-15.872.031-14.977-.598-15.551-.168-.149-5.918-3.504-12.789-7.461L101.172 14.016h-1.387l-12.211 7.012c-6.723 3.867-12.438 7.172-12.715 7.352-.277.183-.609.523-.746.769l-.246.426-.055 13.734-.051 13.738-10.082 5.809c-5.547 3.188-10.164 5.829-10.262 5.852-.18.05-.192-1.258-.192-26.504V15.633l-.266-.457c-.332-.555 1.16.332-13.825-8.281C26.57-.332 26.871-.18 26.027.137zM37.578 10.656c5.258 3.016 9.559 5.512 9.559 5.543 0 .031-4.609 2.695-10.242 5.933l-10.25 5.883-10.23-5.883C10.793 18.895 6.188 16.23 6.188 16.199c0-.031 4.598-2.695 10.219-5.926l10.207-5.871.703.383c.394.215 5.016 2.856 10.461 5.871zM110.73 24.191c5.535 3.188 10.113 5.821 10.156 5.864.117.106-20.183 11.774-20.461 11.762-.277-.008-20.328-11.563-20.32-11.704.012-.16 20.184-11.766 20.387-11.734.094.023 4.703 2.644 10.238 5.812zM14.828 25.875l9.758 5.617.055 27.813.051 27.817.238.375c.125.199.36.469.531.594.161.117 5.59 3.211 12.063 6.863l11.758 6.64v11.766c0 6.457-.043 11.754-.098 11.754-.043 0-10.207-5.816-22.582-12.937L4.105 99.238l-.031-39.773-.02-39.761.5.277c.289.152 4.906 2.805 10.274 5.895zM49.281 45.453v25.629l-.395.258c-.535.34-20.074 11.57-20.141 11.57-.031 0-.055-11.57-.055-25.715l.012-25.703 10.207-5.871c5.613-3.231 10.242-5.852 10.297-5.832.039.023.074 11.574.074 25.664zM88.223 39.559l10.23 5.883v11.66c0 11.063-.012 11.656-.18 11.594-.109-.043-4.738-2.695-10.293-5.895l-10.113-5.808V45.336c0-6.418.031-11.66.063-11.66.043 0 4.672 2.645 10.293 5.883zM123.094 45.262c0 6.383-.043 11.649-.086 11.7-.074.117-20.308 11.777-20.437 11.777-.031 0-.063-5.242-.063-11.66V45.422l10.207-5.875c5.621-3.227 10.25-5.872 10.293-5.872.055 0 .086 5.211.086 11.285zM86.23 66.469c8.606 4.953 10.09 5.84 9.941 5.957-.098.063-3.36 1.938-7.243 4.157-3.883 2.215-13.941 7.95-22.359 12.747l-15.297 8.726-.488-.265c-2.922-1.598-19.875-11.243-19.875-11.317-.008-.16 44.855-25.941 45.035-25.875.086.031 4.715 2.672 10.285 5.871zM98.434 87.559l-.035 11.68-22.484 12.937c-12.372 7.121-22.539 12.938-22.59 12.938-.055 0-.098-4.754-.098-11.754V101.594l22.539-12.852c12.383-7.067 22.559-12.852 22.613-12.863.043 0 .063 5.254.055 11.72z"/></svg>
